<?xml version="1.0" encoding="utf-8"?>
<!-- Generator: Adobe Illustrator 24.2.2, SVG Export Plug-In . SVG Version: 6.00 Build 0)  -->
<svg version="1.1" id="Layer_1" xmlns="http://www.w3.org/2000/svg" xmlns:xlink="http://www.w3.org/1999/xlink" x="0px" y="0px"
	 viewBox="0 0 99 100" style="enable-background:new 0 0 99 100;" xml:space="preserve">
<style type="text/css">
	.st0{fill:none;stroke:#007bff;stroke-width:1.5;stroke-miterlimit:10;stroke-dasharray:4.9819,4.9819;}
	.st1{fill:#007bff;opacity:.8;stroke:none;stroke-width:0.75;stroke-miterlimit:10;}
	.st2{fill:#FFFFFF;}
</style>
<g>
	<circle class="st0" cx="49.5" cy="50" r="46">
<animateTransform id="animateCircle"
   attributeName= "transform"
   attributeType= "XML"
   type="rotate"
   dur= "6s"
   from="0 49.5 50 "
   to = "360 49.5 50 "
   repeatCount="indefinite"
  
   />
   </circle>
   </g>
<circle class="st1" cx="49.5" cy="50" r="34.32"/>
<path class="st2" d="M38.05,65h-0.11C36.87,65,36,64.13,36,63.05V37.95c0-1.08,0.87-1.95,1.95-1.95h0.11c1.08,0,1.95,0.87,1.95,1.95
	v25.11C40,64.13,39.13,65,38.05,65z">
	<animateTransform 
   attributeName= "transform"
   attributeType= "XML"
   type="translate"
   dur= "1s"
   values="0,10;0,-10;0,10"
   repeatCount="indefinite"
   />
   </path>
	
<path class="st2" d="M44.05,65h-0.11C42.87,65,42,64.13,42,63.05V37.95c0-1.08,0.87-1.95,1.95-1.95h0.11c1.08,0,1.95,0.87,1.95,1.95
	v25.11C46,64.13,45.13,65,44.05,65z">
		<animateTransform 
   attributeName= "transform"
   attributeType= "XML"
   type="translate"
   dur= "1s"
   begin=".1s"
   stop="3s"
   values="0,10;0,-10;0,10"
    repeatCount="indefinite"
   />
   </path>
	<path class="st2" d="M50.05,65h-0.11C48.87,65,48,64.13,48,63.05V37.95c0-1.08,0.87-1.95,1.95-1.95h0.11c1.08,0,1.95,0.87,1.95,1.95
	v25.11C52,64.13,51.13,65,50.05,65z">
	<animateTransform
   attributeName= "transform"
   attributeType= "XML"
   type="translate"
   dur= "1s"
   begin=".2s"
   values="0,10;0,-10;0,10"
    repeatCount="indefinite"
   />
   </path>
<path class="st2" d="M56.05,65h-0.11C54.87,65,54,64.13,54,63.05V37.95c0-1.08,0.87-1.95,1.95-1.95h0.11c1.08,0,1.95,0.87,1.95,1.95
	v25.11C58,64.13,57.13,65,56.05,65z">
	<animateTransform
   attributeName= "transform"
   attributeType= "XML"
   type="translate"
   dur= "1s"
   begin=".3s"
   values="0,10;0,-10;0,10"
   repeatCount="indefinite"
   />
   </path>
	

<path class="st2" d="M61.05,65h-0.11C59.87,65,59,64.13,59,63.05V37.95c0-1.08,0.87-1.95,1.95-1.95h0.11c1.08,0,1.95,0.87,1.95,1.95
	v25.11C63,64.13,62.13,65,61.05,65z">
	<animateTransform id="animate6Circle"
   attributeName= "transform"
   attributeType= "XML"
   type="translate"
   dur= "1s"
   begin=".4s"
   values="0,10;0,-10;0,10"
   repeatCount="indefinite"
   />
   </path>
</svg>
